<svg xmlns="http://www.w3.org/2000/svg" width="600" height="400" viewBox="0 0 600 400"><rect width="100%" height="100%" fill="#a3e635"/><path fill="#1e293b" d="M143.61 190.275h3.57l-6.19 19.49h-3.76q-.65 0-.9-.84l-3.49-11.26q-.17-.57-.32-1.13-.14-.56-.23-1.13-.12.57-.26 1.15t-.31 1.15l-3.56 11.22q-.22.84-1 .84h-3.61l-6.18-19.49h3.75q.51 0 .87.24.36.25.47.63l2.8 10.41q.21.86.37 1.67.16.82.27 1.64.21-.82.45-1.64.24-.81.5-1.67l3.23-10.45q.12-.38.45-.63.33-.24.81-.24h2.07q.49 0 .84.24.35.25.47.63l3.13 10.45q.25.86.47 1.68.22.83.43 1.65.24-1.62.7-3.33l2.87-10.41q.13-.38.47-.63.35-.24.82-.24m30.5 0h3.57l-6.2 19.49h-3.76q-.64 0-.89-.84l-3.5-11.26q-.17-.57-.31-1.13t-.24-1.13q-.11.57-.25 1.15-.15.58-.32 1.15l-3.55 11.22q-.23.84-1.01.84h-3.61l-6.17-19.49h3.74q.51 0 .87.24.36.25.48.63l2.79 10.41q.21.86.37 1.67.16.82.28 1.64.21-.82.44-1.64.24-.81.51-1.67l3.23-10.45q.11-.38.44-.63.34-.24.81-.24h2.07q.5 0 .85.24.35.25.46.63l3.14 10.45q.25.86.46 1.68.22.83.43 1.65.25-1.62.7-3.33l2.87-10.41q.14-.38.48-.63.34-.24.82-.24m30.49 0h3.57l-6.19 19.49h-3.76q-.65 0-.9-.84l-3.49-11.26q-.17-.57-.32-1.13-.14-.56-.23-1.13-.12.57-.26 1.15t-.31 1.15l-3.56 11.22q-.22.84-1 .84h-3.61l-6.18-19.49h3.75q.51 0 .87.24.36.25.47.63l2.8 10.41q.21.86.37 1.67.16.82.27 1.64.21-.82.45-1.64.24-.81.5-1.67l3.23-10.45q.12-.38.45-.63.33-.24.81-.24h2.07q.49 0 .84.24.36.25.47.63l3.13 10.45q.25.86.47 1.68.22.83.43 1.65.24-1.62.7-3.33l2.87-10.41q.13-.38.47-.63.35-.24.82-.24m30.5 0h3.57l-6.2 19.49h-3.76q-.64 0-.89-.84l-3.5-11.26q-.17-.57-.31-1.13t-.24-1.13q-.11.57-.25 1.15-.15.58-.32 1.15l-3.55 11.22q-.23.84-1.01.84h-3.61l-6.17-19.49h3.74q.51 0 .87.24.37.25.48.63l2.79 10.41q.21.86.37 1.67.16.82.28 1.64.21-.82.44-1.64.24-.81.51-1.67l3.23-10.45q.11-.38.44-.63.34-.24.81-.24h2.07q.5 0 .85.24.35.25.46.63l3.14 10.45q.25.86.46 1.68.22.83.43 1.65.25-1.62.71-3.33l2.86-10.41q.14-.38.48-.63.34-.24.82-.24m30.49 0h3.57l-6.19 19.49h-3.76q-.65 0-.9-.84l-3.49-11.26q-.17-.57-.32-1.13-.14-.56-.23-1.13-.12.57-.26 1.15t-.31 1.15l-3.56 11.22q-.22.84-1 .84h-3.61l-6.18-19.49h3.75q.51 0 .87.24.36.25.47.63l2.8 10.41q.21.86.37 1.67.16.82.27 1.64.21-.82.45-1.64.24-.81.5-1.67l3.23-10.45q.12-.38.45-.63.33-.24.81-.24h2.07q.49 0 .84.24.36.25.47.63l3.13 10.45q.25.86.47 1.68.22.83.43 1.65.24-1.62.7-3.33l2.87-10.41q.13-.38.47-.63.35-.24.82-.24m30.5 0h3.57l-6.2 19.49h-3.76q-.64 0-.89-.84l-3.5-11.26q-.17-.57-.31-1.13t-.24-1.13q-.11.57-.25 1.15-.15.58-.32 1.15l-3.55 11.22q-.23.84-1.01.84h-3.61l-6.17-19.49h3.74q.51 0 .87.24.37.25.48.63l2.79 10.41q.21.86.37 1.67.16.82.28 1.64.21-.82.44-1.64.24-.81.51-1.67l3.23-10.45q.11-.38.44-.63.34-.24.81-.24h2.07q.5 0 .85.24.35.25.46.63l3.14 10.45q.25.86.46 1.68.22.83.43 1.65.25-1.62.71-3.33l2.86-10.41q.14-.38.48-.63.34-.24.82-.24m30.49 0h3.57l-6.19 19.49h-3.76q-.65 0-.9-.84l-3.49-11.26q-.17-.57-.32-1.13-.14-.56-.23-1.13-.12.57-.26 1.15t-.31 1.15l-3.56 11.22q-.22.84-1 .84h-3.61l-6.18-19.49h3.75q.51 0 .87.24.36.25.47.63l2.8 10.41q.21.86.37 1.67.16.82.27 1.64.21-.82.45-1.64.24-.81.5-1.67l3.23-10.45q.12-.38.45-.63.33-.24.81-.24h2.07q.49 0 .84.24.36.25.47.63l3.13 10.45q.25.86.47 1.68.22.83.43 1.65.24-1.62.7-3.33l2.87-10.41q.13-.38.47-.63.35-.24.82-.24m30.5 0h3.57l-6.2 19.49h-3.76q-.64 0-.89-.84l-3.5-11.26q-.17-.57-.31-1.13t-.24-1.13q-.11.57-.25 1.15-.15.58-.32 1.15l-3.55 11.22q-.23.84-1.01.84h-3.61l-6.17-19.49h3.74q.51 0 .87.24.37.25.48.63l2.79 10.41q.21.86.37 1.67.16.82.28 1.64.21-.82.44-1.64.24-.81.51-1.67l3.23-10.45q.11-.38.44-.63.34-.24.81-.24h2.07q.5 0 .85.24.35.25.46.63l3.14 10.45q.25.86.46 1.68.22.83.43 1.65.25-1.62.71-3.33l2.86-10.41q.14-.38.48-.63.34-.24.82-.24m30.49 0h3.57l-6.19 19.49h-3.76q-.65 0-.9-.84l-3.49-11.26q-.17-.57-.32-1.13-.14-.56-.23-1.13-.12.57-.26 1.15t-.31 1.15l-3.56 11.22q-.22.84-1 .84h-3.61l-6.18-19.49h3.75q.51 0 .87.24.36.25.47.63l2.8 10.41q.21.86.37 1.67.16.82.27 1.64.21-.82.45-1.64.24-.81.5-1.67l3.23-10.45q.12-.38.45-.63.33-.24.81-.24h2.07q.49 0 .84.24.36.25.47.63l3.13 10.45q.25.86.47 1.68.22.83.43 1.65.24-1.62.7-3.33l2.87-10.41q.13-.38.47-.63.35-.24.82-.24m30.5 0h3.57l-6.2 19.49h-3.76q-.64 0-.89-.84l-3.5-11.26q-.17-.57-.31-1.13t-.24-1.13q-.11.57-.25 1.15-.15.58-.32 1.15l-3.55 11.22q-.23.84-1.01.84H398l-6.17-19.49h3.74q.51 0 .87.24.37.25.48.63l2.79 10.41q.21.86.37 1.67.16.82.28 1.64.21-.82.44-1.64.24-.81.51-1.67l3.23-10.45q.11-.38.44-.63.34-.24.81-.24h2.07q.5 0 .85.24.35.25.46.63l3.14 10.45q.25.86.46 1.68.22.83.43 1.65.25-1.62.71-3.33l2.86-10.41q.14-.38.48-.63.34-.24.82-.24m30.49 0h3.57l-6.19 19.49h-3.76q-.65 0-.9-.84l-3.49-11.26q-.17-.57-.32-1.13-.14-.56-.23-1.13-.12.57-.26 1.15t-.31 1.15l-3.56 11.22q-.22.84-1 .84h-3.61l-6.18-19.49h3.75q.51 0 .87.24.36.25.47.63l2.8 10.41q.21.86.37 1.67.16.82.27 1.64.21-.82.45-1.64.24-.81.5-1.67l3.23-10.45q.12-.38.45-.63.33-.24.81-.24h2.07q.49 0 .84.24.36.25.47.63l3.13 10.45q.25.86.47 1.68.22.83.43 1.65.24-1.62.7-3.33l2.87-10.41q.13-.38.47-.63.35-.24.82-.24m30.5 0h3.57l-6.2 19.49h-3.76q-.64 0-.89-.84l-3.5-11.26q-.17-.57-.31-1.13t-.24-1.13q-.11.57-.25 1.15-.15.58-.32 1.15l-3.55 11.22q-.23.84-1.01.84h-3.61l-6.17-19.49h3.74q.51 0 .87.24.37.25.48.63l2.79 10.41q.21.86.37 1.67.16.82.28 1.64.21-.82.44-1.64.24-.81.51-1.67l3.23-10.45q.11-.38.44-.63.34-.24.81-.24h2.07q.5 0 .85.24.35.25.46.63l3.14 10.45q.25.86.46 1.68.22.83.43 1.65.25-1.62.71-3.33l2.86-10.41q.14-.38.48-.63.34-.24.82-.24"/></svg>